<?xml version="1.0" standalone="no"?><!DOCTYPE svg PUBLIC "-//W3C//DTD SVG 1.1//EN" "http://www.w3.org/Graphics/SVG/1.1/DTD/svg11.dtd"><svg t="1698125982642" class="icon" viewBox="0 0 1298 1024" version="1.1" xmlns="http://www.w3.org/2000/svg" p-id="34867" xmlns:xlink="http://www.w3.org/1999/xlink" width="253.515625" height="200"><path d="M1290.701417 627.538503c-8.179715 2.044929-14.996143 6.134786-21.812572 10.906286-5.453143 6.134786-9.543 13.632858-12.269572 21.812572-2.044929 4.089857-6.134786 5.453143-10.224643 4.089858-2.044929-0.681643-3.408214-2.044929-4.089858-4.089858-2.044929-7.498072-6.134786-14.314501-10.906286-19.767643-7.498072-5.453143-14.996143-9.543-23.857501-12.269572-4.089857 0-6.816429-2.726572-6.816429-6.816429s2.726572-6.816429 6.816429-6.816429c8.179715-2.726572 16.359429-6.816429 23.175858-11.587929 4.7715-6.134786 8.861357-12.951215 11.587929-21.130929 2.044929-4.089857 6.134786-5.453143 10.224644-4.089858 2.044929 0.681643 3.408214 2.044929 4.089857 4.089858 2.726572 7.498072 6.816429 14.996143 11.587929 21.130929 6.816429 4.7715 14.314501 8.861357 22.494215 11.587929 3.408214 0.681643 6.134786 4.089857 5.453143 7.498072 0 2.726572-2.726572 5.453143-5.453143 5.453143z m-68.164288-245.391438c-8.861357 0-15.677786-6.816429-15.677787-15.677787s6.816429-15.677786 15.677787-15.677786 15.677786 6.816429 15.677786 15.677786c-0.681643 8.861357-7.498072 15.677786-15.677786 15.677787z m-68.164289 428.753374c-11.587929 0-20.449287-8.861357-20.449286-20.449287s8.861357-20.449287 20.449286-20.449286 20.449287 8.861357 20.449287 20.449286-8.861357 20.449287-20.449287 20.449287z m-57.258002-580.759738c-8.179715 2.044929-14.996143 6.134786-21.812572 10.906286-5.453143 6.134786-9.543 13.632858-12.269572 21.812573-2.044929 4.089857-6.134786 5.453143-10.224644 4.089857-2.044929-0.681643-3.408214-2.044929-4.089857-4.089857-2.044929-7.498072-6.134786-14.314501-10.906286-19.767644-7.498072-5.453143-14.996143-9.543-23.857501-12.269572-4.089857 0-6.816429-2.726572-6.816429-6.816429s2.726572-6.816429 6.816429-6.816428c8.179715-2.726572 16.359429-6.816429 23.175858-11.587929 4.7715-6.134786 8.861357-12.951215 11.587929-20.449287 2.044929-4.089857 6.134786-5.453143 10.224643-4.089857 2.044929 0.681643 3.408214 2.044929 4.089858 4.089857 2.726572 7.498072 6.816429 14.996143 11.587929 21.130929 6.816429 4.7715 14.314501 8.861357 22.494215 10.906287 3.408214 1.363286 5.453143 4.7715 4.089857 8.861357-0.681643 1.363286-2.044929 2.726572-4.089857 4.089857z m-11.587929 251.526225c-17.041072 51.123216-92.703432 79.752217-222.21558 79.752217-71.572503 0-176.545507-8.861357-256.979368-27.265715C416.153596 489.164997 252.559304 398.506494 217.795517 318.072633c-10.906286-21.812572-10.224643-47.033359 2.044929-68.164288 40.898573-70.209217 163.594292-66.801003 212.67258-62.029502C505.448814 95.857053 617.91989 57.685052 731.072609 90.40391c107.699576 31.355573 147.234863 132.23872 161.549364 208.582723 5.453143-1.363286 11.587929-0.681643 17.041072 2.044928 34.763787 12.951215 67.482646 29.992287 98.156575 50.441574 68.845931 49.078288 89.295218 94.748361 77.707289 130.193791z m-105.654647-90.658504c-25.220787-17.041072-51.804859-31.355573-80.433861-42.943502 1.363286 14.314501 2.044929 28.629001 1.363286 42.943502-0.681643 12.951215-11.587929 23.175858-24.539144 23.175858H874.217615c-0.681643 0-1.363286 0.681643-2.044929 0.681643-20.449287 3.408214-40.898573 4.7715-61.34786 4.7715-55.213074-0.681643-109.744504-8.861357-162.912649-23.857501-12.951215-3.408214-19.767644-17.041072-16.359429-29.310644 4.089857-12.269572 17.041072-19.767644 29.992287-15.677786 1.363286 0 100.201504 29.310644 190.178365 19.086001-2.726572-53.849788-20.449287-199.721365-134.283649-233.121867-94.066718-27.265715-184.043579 3.408214-245.391438 78.388932v1.363286c-1.363286 8.179715-6.816429 15.677786-14.996144 19.086-8.179715 12.269572-15.677786 25.220787-21.812572 38.853645-6.134786 12.269572-20.449287 17.041072-32.718858 11.587929-12.269572-5.453143-17.041072-19.767644-11.587929-31.355573v-0.681643c3.408214-6.816429 6.816429-13.632858 10.224643-19.767643-49.759931-1.363286-118.605862 5.453143-139.055149 39.535287-2.726572 4.089857-5.453143 11.587929 0.681643 24.539144 25.220787 57.258002 164.275935 143.145006 355.135943 187.451793 104.291361 24.539144 203.811222 32.037216 291.743155 22.494215 92.703432-10.224643 119.287505-24.539144 124.059005-42.943502 2.044929-10.224643 5.453143-31.355573-53.849788-74.299074z m-404.214231-8.179715c-6.816429-0.681643-13.632858-2.044929-20.449286-3.408214-14.996143-3.408214-29.310644-8.179715-43.625145-14.314501-19.086001-8.179715-36.808716-18.404358-53.168145-30.673929-10.906286-8.179715-12.951215-23.857501-5.453143-34.763787 7.498072-10.906286 21.812572-13.632858 32.718859-6.134786 0.681643 0 0.681643 0.681643 1.363285 0.681642 13.632858 9.543 28.629001 18.404358 43.625145 25.220787 17.722715 6.134786 35.44543 11.587929 53.168145 15.677787 12.951215 2.726572 19.086001 19.086001 14.314501 32.037215-2.726572 8.861357-12.269572 15.677786-22.494216 15.677786z m347.637871-267.20401c-5.453143 0-10.224643-4.7715-10.224643-10.224644s4.7715-10.224643 10.224643-10.224643 10.224643 4.7715 10.224644 10.224643-4.089857 9.543-10.224644 10.224644zM594.062389 44.733837c-6.816429 2.044929-13.632858 5.453143-19.086001 10.224643-4.7715 5.453143-8.179715 12.269572-10.906286 19.086001-1.363286 3.408214-5.453143 5.453143-8.861357 4.089857-2.044929-0.681643-3.408214-2.044929-4.089858-4.089857-2.044929-6.816429-5.453143-12.269572-9.543-17.722715-6.134786-4.7715-13.632858-8.179715-21.130929-10.906286-3.408214-0.681643-5.453143-4.7715-4.089858-7.498072 0.681643-2.044929 2.044929-3.408214 4.089858-4.089857 7.498072-2.044929 14.314501-5.453143 20.449286-10.224644 4.7715-5.453143 8.179715-11.587929 10.224643-19.086 1.363286-3.408214 4.7715-5.453143 8.861358-4.089858 2.044929 0.681643 3.408214 2.044929 4.089857 4.089858 2.044929 6.816429 6.134786 12.951215 10.224644 18.404357 5.453143 4.7715 12.269572 8.179715 19.767643 10.224644 2.726572 1.363286 4.7715 4.7715 3.408215 8.179714-0.681643 1.363286-2.044929 2.726572-3.408215 3.408215zM333.674807 142.890412c-8.861357 0-15.677786-6.816429-15.677786-15.677786s6.816429-15.677786 15.677786-15.677787c8.861357 0 15.677786 6.816429 15.677787 15.677787s-6.816429 15.677786-15.677787 15.677786zM318.678664 65.864766c-6.816429 2.044929-13.632858 4.7715-19.767644 9.543001-4.7715 5.453143-8.179715 12.269572-10.906286 19.086-1.363286 3.408214-5.453143 5.453143-8.861357 4.089858-2.044929-0.681643-3.408214-2.044929-4.089858-4.089858-2.044929-6.134786-5.453143-12.269572-9.543-17.722715-6.134786-4.7715-13.632858-8.179715-21.13093-10.906286-3.408214-0.681643-5.453143-4.7715-4.089857-7.498072 0.681643-2.044929 2.044929-3.408214 4.089857-4.089857C252.559304 52.231908 259.375733 48.142051 265.510519 44.052194c4.7715-5.453143 8.179715-11.587929 10.224643-18.404358 1.363286-3.408214 5.453143-5.453143 8.861358-3.408214 1.363286 0.681643 2.726572 2.044929 3.408214 3.408214 2.044929 6.816429 6.134786 12.951215 10.224643 18.404358 6.134786 4.089857 12.951215 7.498072 19.767644 9.543 4.089857 1.363286 5.453143 5.453143 4.7715 8.179715-0.681643 2.044929-2.044929 3.408214-4.089857 4.089857zM197.34623 123.122768c-5.453143 0-10.224643-4.7715-10.224643-10.224643s4.7715-10.224643 10.224643-10.224643 10.224643 4.7715 10.224644 10.224643-4.089857 10.224643-10.224644 10.224643z m-55.894716 158.822793c-8.861357 0-15.677786-7.498072-14.996144-15.677787 0-8.861357 7.498072-15.677786 15.677787-14.996143 8.179715 0 14.996143 6.816429 14.996143 15.677786 0 8.179715-6.816429 14.996143-15.677786 14.996144z m-3.408215 368.7688c6.134786 4.089857 12.951215 7.498072 19.767644 9.543 3.408214 0.681643 5.453143 4.7715 4.089857 7.498072-0.681643 2.044929-2.044929 3.408214-4.089857 4.089857-6.816429 2.044929-13.632858 5.453143-19.767644 9.543001-4.7715 5.453143-8.179715 12.269572-10.906286 19.086001-1.363286 3.408214-5.453143 5.453143-8.861357 4.089857-2.044929-0.681643-3.408214-2.044929-4.089857-4.089857-2.044929-6.134786-5.453143-12.269572-9.543001-17.722715-6.134786-4.7715-13.632858-8.179715-21.130929-10.906287-3.408214-0.681643-5.453143-4.7715-4.089858-7.498071 0.681643-2.044929 2.044929-3.408214 4.089858-4.089858 7.498072-2.044929 14.314501-5.453143 20.449286-10.224643 4.7715-5.453143 8.179715-11.587929 10.224644-18.404358 1.363286-3.408214 5.453143-5.453143 8.861357-4.089857 2.044929 0.681643 3.408214 2.044929 4.089857 4.089857 2.726572 7.498072 6.134786 13.632858 10.906286 19.086001z m-25.220786-169.047435c-10.224643 3.408214-19.767644 8.179715-27.947359 14.3145-6.816429 8.179715-12.269572 17.722715-15.677786 27.947359-2.044929 4.7715-8.179715 7.498072-12.951215 5.453143-2.044929-0.681643-4.089857-2.726572-5.453143-5.453143-2.726572-9.543-7.498072-18.404358-13.632857-25.90243C27.617152 491.209926 17.392509 485.756783 6.486223 482.348569c-4.7715-1.363286-7.498072-6.816429-6.134786-11.587929 0.681643-3.408214 3.408214-5.453143 6.134786-6.134786 10.906286-3.408214 20.449287-8.179715 29.310644-14.996144 6.816429-8.179715 11.587929-17.041072 14.996143-26.584072 2.044929-4.7715 8.179715-7.498072 12.951215-5.453143 2.044929 0.681643 4.089857 2.726572 5.453143 5.453143 3.408214 10.224643 8.179715 19.086001 14.996144 27.265715 8.861357 6.816429 18.404358 11.587929 28.629001 14.314501 4.7715 1.363286 7.498072 6.816429 6.134786 11.587929-1.363286 2.044929-3.408214 4.7715-6.134786 5.453143z m113.834361 132.920362c2.044929-8.179715 10.224643-13.632858 19.086001-11.587929 7.498072 1.363286 12.269572 8.179715 12.269572 15.677787 0 5.453143 0 12.269572-126.785576 214.717508-4.7715 7.498072-14.314501 9.543-21.812573 4.7715s-9.543-14.314501-4.7715-21.812572c43.625145-70.209217 115.197647-186.088507 122.014076-201.766294z m-54.53143-74.980717c-2.726572 4.089857-7.498072 6.134786-12.951215 6.134786-3.408214 0-6.816429-0.681643-8.861358-2.726572-6.816429-5.453143-8.179715-14.996143-3.408214-21.812572L245.742875 386.918565c5.453143-6.816429 14.996143-8.179715 21.812573-3.408215s8.179715 14.996143 3.408214 21.812573L172.125444 539.606571z m97.474932 248.11801c4.7715-7.498072 14.314501-9.543 21.812572-5.453143 6.816429 4.089857 9.543 12.951215 6.134786 19.767643l-25.902429 41.580216c-4.7715 7.498072-14.314501 9.543-21.812572 5.453143-6.816429-4.089857-9.543-12.951215-6.134786-19.767643l25.902429-41.580216z m156.777864-278.79194c4.089857-7.498072 14.314501-10.224643 21.812572-5.453143 7.498072 4.089857 9.543 12.951215 6.134786 20.449287l-102.246433 188.815079c-2.726572 4.7715-8.179715 8.179715-13.632857 8.179714-2.726572 0-5.453143-0.681643-7.498072-2.044928-7.498072-4.089857-10.224643-13.632858-6.134786-21.13093l101.56479-188.815079z m-79.070575 401.487659c6.816429 0 12.951215 5.453143 12.951215 12.951215 0 6.816429-5.453143 12.951215-12.951215 12.951215-6.816429 0-12.951215-5.453143-12.951215-12.951215s5.453143-12.951215 12.951215-12.951215z m1.363286-44.98843l173.818935-325.825299c4.089857-7.498072 13.632858-10.906286 21.13093-6.816429s10.906286 13.632858 6.816429 21.130929L376.618309 879.74637c-2.726572 4.7715-8.179715 8.179715-13.632858 8.179715-2.726572 0-4.7715-0.681643-7.498071-2.044929-7.498072-3.408214-10.906286-12.269572-6.816429-20.449286z m125.422291 24.539144c4.089857-7.498072 13.632858-10.906286 21.130929-6.816429 6.816429 3.408214 10.224643 11.587929 8.179715 19.086l-27.947359 57.258003c-2.726572 8.179715-11.587929 12.269572-19.767643 9.543s-12.269572-11.587929-9.543001-19.767644c0-0.681643 0.681643-1.363286 0.681643-2.044928l27.265716-57.258002zM607.013604 671.163648c1.363286-8.861357 8.861357-14.996143 17.722715-13.632858 8.861357 1.363286 14.996143 8.861357 13.632858 17.722715l-27.947359 231.758581c-1.363286 7.498072-7.498072 13.632858-15.677786 13.632857h-2.044929c-8.861357-1.363286-14.996143-8.861357-13.632857-17.722715l27.947358-231.75858z m43.625145 280.836868c8.861357 0 15.677786 6.816429 15.677786 15.677786 0 8.861357-6.816429 15.677786-15.677786 15.677787-8.861357 0-15.677786-6.816429-15.677787-15.677787 0.681643-8.861357 7.498072-15.677786 15.677787-15.677786 0.681643 0 0.681643 0 0 0z m61.347859-393.307944c8.861357-0.681643 16.359429 6.134786 16.359429 14.996143l23.857501 385.809873c0.681643 8.861357-6.134786 16.359429-14.996143 16.359429h-0.681643c-8.179715 0-14.996143-6.816429-15.677786-14.996143l-23.857501-385.809873c-0.681643-8.179715 6.134786-15.677786 14.996143-16.359429z m95.430004 26.584072c8.861357-0.681643 16.359429 5.453143 17.041072 13.632858l15.677787 175.182221c0.681643 8.861357-5.453143 16.359429-14.314501 17.041072h-0.681643c-8.179715 0-14.996143-6.134786-15.677786-14.3145l-15.677787-175.182222c-0.681643-8.179715 5.453143-15.677786 13.632858-16.359429z m19.086001 277.428654c8.861357-1.363286 16.359429 4.7715 17.722715 12.951215l12.269572 75.66236c1.363286 8.861357-4.7715 16.359429-12.951215 17.722715-8.861357 1.363286-16.359429-4.7715-17.722715-12.951215l-12.269572-75.66236c-1.363286-8.179715 4.089857-16.359429 12.951215-17.722715z m140.418434-246.754724c8.861357-1.363286 16.359429 4.7715 17.722715 12.951215v0.681643l40.21693 276.747011c1.363286 8.861357-4.7715 16.359429-12.951215 17.722715h-2.726571c-8.179715 0-14.314501-6.134786-15.677786-13.632858L953.969832 634.354932c-1.363286-8.861357 4.089857-16.359429 12.951215-18.404358 0 0.681643 0 0.681643 0 0z m2.044929 362.634015c7.498072-2.044929 14.314501-5.453143 20.449286-10.224644 4.7715-5.453143 8.179715-11.587929 10.224643-18.404358 1.363286-3.408214 5.453143-5.453143 8.861358-4.089857 2.044929 0.681643 3.408214 2.044929 4.089857 4.089857 2.726572 6.816429 6.134786 12.951215 10.906286 18.404358 6.134786 4.089857 12.951215 7.498072 19.767644 10.224644 3.408214 1.363286 4.7715 4.7715 4.089857 8.179714-0.681643 2.044929-2.044929 3.408214-4.089857 4.089857-6.816429 2.044929-13.632858 5.453143-19.767644 9.543001-4.7715 5.453143-8.179715 12.269572-10.906286 19.086001-1.363286 3.408214-5.453143 5.453143-8.861357 4.089857-2.044929-0.681643-3.408214-2.044929-4.089858-4.089857-2.044929-6.134786-5.453143-12.269572-9.543-17.722715-6.134786-4.7715-13.632858-8.179715-21.130929-10.906287-3.408214-0.681643-5.453143-4.7715-4.089858-7.498071 0.681643-2.726572 2.044929-4.089857 4.089858-4.7715z" p-id="34868"></path></svg>